# xmcd CD database file
# Copyright (C) 1995-1998 Ti Kan
#
# Track frame offsets:
#	150
#	14388
#	30150
#	43467
#	56402
#	70385
#	84580
#	99058
#	112583
#	128795
#	143722
#	156490
#	169847
#	182833
#	196112
#	210672
#	223188
#	235025
#	248278
#	261272
#	275118
#	288584
#	302389
#
# Disc length: 4203 seconds
#
# Revision: 1
# Processed by: cddbd v1.4b41PL1 Copyright (c) Steve Scherf et al.
# Submitted via: CDex 1.30
#
DISCID=40106917
DTITLE=East Coast Blues 1927-44 vol2
DYEAR=1900
DGENRE=Blues
TTITLE0=Willie Walker - South Carolina Rag
TTITLE1=Willie Walker - Dupree Blues
TTITLE2=Jack Gowdlock - Poor Jane Blues
TTITLE3=Jack Gowdlock - Rollin' Dough Blues
TTITLE4=Sloppy Henry - Royal Palm Special Blues
TTITLE5=Sloppy Henry - Long, Tall  Disconnected Mama
TTITLE6=Guy Lumpkin - Decatur Street Drag
TTITLE7=Charlie Lincon - Chain Gang Trouble
TTITLE8=Charlie Lincon - Jealous Hearted Blues
TTITLE9=Willie Baker - Rag Baby
TTITLE10=Fred McMullen - Rolling Mama
TTITLE11=Fred McMullen - Poor Stranger Blues
TTITLE12=George Carter - Hot Jelly Roll
TTITLE13=George Carter - Ghost Woman Blues
TTITLE14=Richard and Welly Trice - Come On In Here Mama
TTITLE15=Richard and Welly Trice - Trembling Bed Spring Blues
TTITLE16=Sonny Terry - Harmonica and Washboard Breakdown
TTITLE17=Walter Beasley - Georgia Skin
TTITLE18=Walter Beasley - Southern Man Blues
TTITLE19=Tarter and Gay - Unkown Blues
TTITLE20=Tarter and Gay - Brownie Blues
TTITLE21=Troy Ferguson - Mama, You Gotta Get It Fixed
TTITLE22=Skoolde Dum Doo and Sheffield - Tampa Blues
EXTD=\nYEAR:       ID3G:   0
EXTT0=
EXTT1=
EXTT2=
EXTT3=
EXTT4=
EXTT5=
EXTT6=
EXTT7=
EXTT8=
EXTT9=
EXTT10=
EXTT11=
EXTT12=
EXTT13=
EXTT14=
EXTT15=
EXTT16=
EXTT17=
EXTT18=
EXTT19=
EXTT20=
EXTT21=
EXTT22=
PLAYORDER=
